<?xml version="1.0" standalone="no"?>
<!DOCTYPE svg PUBLIC "-//W3C//DTD SVG 20010904//EN"
 "http://www.w3.org/TR/2001/REC-SVG-20010904/DTD/svg10.dtd">
<svg version="1.0" xmlns="http://www.w3.org/2000/svg"
 width="500.000000pt" height="500.000000pt" viewBox="0 0 500.000000 500.000000"
 preserveAspectRatio="xMidYMid meet">

<g transform="translate(0.000000,500.000000) scale(0.100000,-0.100000)"
fill="#000000" stroke="none">
<path d="M3512 3528 c-18 -18 -14 -46 9 -58 27 -15 51 5 47 39 -3 29 -35 40
-56 19z m46 -22 c2 -10 -1 -23 -7 -29 -15 -15 -46 16 -37 38 8 21 40 15 44 -9z"/>
<path d="M3644 3528 c-4 -6 2 -19 15 -29 22 -18 13 -37 -11 -23 -10 5 -10 4
-1 -6 13 -14 43 -7 43 9 0 6 -9 15 -20 21 -24 13 -17 32 7 23 11 -4 14 -3 9 5
-9 15 -33 15 -42 0z"/>
<path d="M3401 3490 c0 -8 5 -25 12 -37 9 -16 16 -20 27 -13 13 9 13 10 -1 10
-8 0 -20 12 -26 28 -6 15 -11 20 -12 12z"/>
<path d="M3828 3440 c-16 -29 -16 -30 5 -41 18 -9 20 -9 10 2 -17 17 -16 32 1
26 10 -4 12 0 8 15 -4 17 -2 20 12 15 10 -4 15 -3 11 3 -11 18 -30 10 -47 -20z"/>
<path d="M3292 3448 c-28 -28 -1 -75 38 -63 33 11 21 75 -15 75 -6 0 -16 -5
-23 -12z m43 -28 c0 -16 -6 -26 -18 -28 -19 -4 -32 20 -23 44 9 25 41 13 41
-16z"/>
<path d="M3190 3355 c-11 -13 -9 -20 10 -40 28 -30 36 -31 50 -5 9 17 7 24
-12 40 -28 24 -32 24 -48 5z m30 -16 c0 -5 -7 -9 -15 -9 -15 0 -20 12 -9 23 8
8 24 -1 24 -14z m21 -22 c-13 -13 -26 -3 -16 12 3 6 11 8 17 5 6 -4 6 -10 -1
-17z"/>
<path d="M3972 3322 c-24 -19 -22 -46 4 -56 34 -13 62 21 44 55 -13 23 -19 23
-48 1z m35 -40 c-14 -13 -18 -13 -33 -2 -15 13 -14 16 7 33 21 17 23 17 32 1
6 -11 4 -21 -6 -32z"/>
<path d="M3450 3251 c-102 -9 -191 -20 -197 -24 -7 -5 -13 -19 -13 -33 0 -13
-4 -24 -10 -24 -5 0 -10 14 -10 30 0 17 -3 30 -7 30 -5 0 -105 -9 -223 -19
-118 -11 -252 -22 -297 -26 -46 -4 -83 -9 -83 -11 0 -2 -11 -99 -25 -216 -26
-212 -38 -258 -70 -258 -11 0 -14 7 -10 23 6 28 45 336 45 360 0 12 -8 17 -30
17 -27 0 -30 3 -30 30 0 29 -2 30 -42 30 -24 0 -140 -9 -258 -19 -118 -11
-252 -23 -296 -26 l-82 -7 -7 -66 c-11 -111 -9 -110 -76 -42 -66 65 -100 80
-188 80 -50 0 -283 -20 -288 -24 -4 -3 -73 -572 -73 -596 0 -19 4 -21 30 -15
29 6 30 5 30 -30 0 -35 1 -36 32 -31 18 3 93 11 167 17 73 6 151 17 173 25
l39 13 -53 -48 c-59 -54 -120 -150 -163 -256 -24 -58 -29 -85 -29 -158 l-1
-88 58 -56 c57 -54 59 -55 107 -51 35 4 62 15 100 42 l51 37 39 -31 c43 -34
61 -37 84 -14 9 8 16 11 16 5 0 -16 72 -89 90 -91 53 -7 86 22 96 86 6 40 9
44 35 44 21 0 29 -5 29 -17 0 -24 62 -83 87 -83 28 0 58 37 78 98 13 42 22 53
43 58 15 3 68 17 118 30 112 29 114 29 114 1 0 -34 72 -100 107 -99 31 1 298
175 330 215 16 21 21 22 48 11 l30 -12 -25 -10 c-120 -46 -150 -70 -150 -117
0 -23 11 -41 45 -75 43 -42 49 -45 98 -44 59 0 136 32 233 94 124 81 145 155
68 240 l-36 40 64 73 c91 103 110 132 110 175 0 30 -8 44 -49 83 l-49 47 45 5
c25 4 88 9 139 13 55 4 95 11 97 18 2 6 6 35 9 64 l5 52 -35 0 c-34 0 -35 1
-29 30 l7 30 -51 0 c-47 0 -51 2 -51 24 0 23 4 25 75 31 62 6 75 10 75 25 0 9
3 38 6 64 l7 46 -32 0 c-28 0 -31 3 -31 30 0 28 -3 30 -35 30 -23 0 -35 5 -35
14 0 15 42 26 104 26 58 0 73 15 80 84 l6 58 -35 -6 -36 -7 7 35 c5 31 4 36
-12 35 -11 -1 -102 -9 -204 -18z m180 -50 c0 -33 -17 -41 -90 -41 -80 0 -88
-6 -95 -63 -3 -29 -9 -65 -12 -81 l-5 -29 71 5 71 5 0 -33 c0 -33 -2 -34 -37
-34 -21 0 -54 -3 -74 -6 -36 -6 -37 -7 -44 -63 -3 -31 -9 -71 -12 -90 l-6 -34
87 6 86 7 0 -30 c0 -17 -6 -33 -12 -35 -17 -5 -342 -33 -346 -30 -4 4 59 538
64 544 4 4 251 28 312 30 40 1 42 0 42 -28z m-445 -48 c-3 -21 -57 -128 -118
-237 -62 -110 -114 -203 -116 -208 -2 -6 39 -7 106 -3 l110 7 -5 -30 c-5 -35
-2 -34 -222 -52 -69 -6 -147 -13 -174 -16 l-49 -6 7 43 c5 29 46 111 123 244
64 110 118 204 120 208 5 8 -136 1 -184 -9 -20 -4 -23 0 -23 26 0 17 6 33 13
35 17 7 290 32 361 34 l58 1 -7 -37z m-482 -115 c-39 -337 -51 -372 -145 -423
-45 -25 -67 -30 -143 -33 -113 -5 -159 11 -180 62 -20 46 -18 97 8 301 l22
170 94 8 c52 4 95 6 96 5 1 -2 -8 -82 -21 -178 -29 -218 -30 -244 -4 -270 37
-37 119 -19 146 31 8 15 23 101 34 191 34 278 26 248 69 248 l38 0 -14 -112z
m-503 50 c0 -39 -13 -46 -97 -53 l-81 -7 -6 -32 c-3 -17 -8 -55 -12 -84 l-7
-52 72 6 71 7 0 -30 c0 -26 -5 -31 -31 -37 -17 -3 -51 -6 -74 -6 -48 0 -47 2
-61 -127 l-6 -62 86 6 c80 6 86 5 86 -13 0 -41 -13 -46 -184 -61 -92 -8 -170
-12 -173 -9 -5 5 55 537 61 542 1 2 269 27 339 33 11 1 17 -6 17 -21z m-542
-65 c15 -10 38 -41 52 -69 21 -41 25 -63 25 -134 -1 -104 -14 -153 -60 -213
-56 -74 -115 -96 -300 -115 -85 -8 -157 -13 -159 -11 -2 2 12 123 30 269 18
146 34 268 34 271 0 10 197 28 278 25 54 -2 81 -8 100 -23z m1185 -70 c-15
-27 -35 -61 -46 -78 l-18 -30 6 50 c13 105 13 105 51 105 l35 0 -28 -47z
m-640 -68 c-11 -52 -37 -62 -27 -10 l7 38 -37 -7 c-32 -6 -36 -4 -36 13 0 17
8 20 48 23 53 3 56 -1 45 -57z m995 -46 l-11 -87 -40 -6 c-22 -4 -41 -5 -43
-4 -1 2 21 44 49 95 29 50 53 90 54 90 0 -1 -4 -41 -9 -88z m-1008 -154 c0
-15 7 -39 15 -55 15 -30 15 -30 -11 -30 -24 0 -26 3 -22 31 l5 31 -54 -6 c-56
-6 -62 -1 -43 35 8 15 22 19 60 19 47 0 50 -2 50 -25z m80 -127 c22 -24 25
-34 10 -43 -18 -11 -39 -72 -76 -223 -19 -81 -37 -153 -40 -160 -3 -9 -11 -4
-27 14 -23 26 -23 28 -10 98 8 39 15 104 16 144 l2 73 37 5 c39 7 48 21 48 82
0 37 11 41 40 10z m477 -8 c-6 -29 -5 -30 28 -30 36 0 353 26 420 35 l40 5
-54 -30 c-65 -36 -113 -71 -163 -118 -32 -30 -36 -32 -31 -13 5 18 -4 32 -37
63 -41 39 -44 40 -94 34 -127 -15 -141 -19 -167 -45 -15 -14 -41 -38 -58 -52
-34 -30 -41 -68 -15 -93 20 -20 11 -36 -45 -78 -54 -41 -91 -61 -98 -55 -2 3
7 23 21 44 14 20 26 48 26 62 0 31 -58 91 -88 91 -21 0 -22 3 -17 34 4 19 2
43 -4 54 -10 18 -6 20 59 26 81 7 170 38 208 72 15 13 38 24 51 24 21 0 23 -3
18 -30z m628 -35 c44 -43 38 -56 -89 -198 -46 -52 -73 -74 -79 -68 -15 15 5
53 70 139 31 40 53 75 49 79 -22 22 -166 -88 -232 -178 -38 -52 -36 -68 7 -69
38 0 148 -42 172 -64 43 -40 37 -85 -15 -136 -56 -54 -192 -121 -257 -128 -45
-4 -51 -2 -67 22 -16 26 -16 28 2 46 10 10 59 35 109 55 97 40 175 82 175 95
0 14 -32 21 -128 29 -105 9 -142 31 -142 83 0 91 163 252 307 304 57 20 91 17
118 -11z m-1575 -49 l0 -33 70 5 70 5 -82 -170 c-69 -140 -85 -167 -96 -156
-7 7 -22 13 -33 13 -26 0 -24 13 4 25 40 18 106 162 92 205 -8 26 -73 90 -93
91 -10 1 -26 1 -37 0 -17 -2 -16 1 8 21 16 13 44 24 63 25 32 1 34 0 34 -31z
m538 1 c2 -14 -11 -79 -27 -143 -17 -64 -31 -122 -31 -128 0 -6 34 25 74 69
56 60 77 77 86 69 17 -17 -6 -56 -89 -146 -39 -42 -71 -78 -71 -80 0 -2 59 6
132 18 88 15 134 27 140 37 4 8 30 31 57 50 61 44 76 87 40 116 l-22 18 20 19
c43 41 97 78 117 80 142 17 146 17 146 4 0 -25 -32 -49 -110 -80 -69 -28 -78
-35 -84 -62 -7 -38 -4 -43 22 -29 26 14 69 14 77 1 12 -19 -19 -51 -80 -83
l-60 -32 -17 -69 c-10 -38 -15 -72 -13 -75 3 -2 15 5 28 16 30 27 112 84 168
116 39 23 48 25 63 14 34 -25 13 -51 -124 -144 -154 -106 -168 -113 -187 -88
-14 20 -10 62 12 153 12 48 12 53 -3 50 -9 -2 -18 -13 -18 -25 -2 -38 -22 -51
-117 -73 -51 -12 -127 -30 -169 -41 l-77 -21 -22 -65 c-19 -58 -40 -85 -56
-70 -3 3 1 29 8 56 7 28 10 53 8 56 -3 2 -22 0 -42 -6 -20 -5 -58 -11 -84 -13
l-47 -2 -12 -53 c-13 -59 -34 -87 -58 -78 -19 7 -21 50 -5 116 5 24 7 46 4 49
-11 12 -109 -44 -126 -72 -15 -25 -19 -27 -25 -13 -3 9 -12 17 -19 17 -8 0
-16 4 -19 9 -8 12 11 61 33 86 10 11 51 91 91 179 75 163 130 268 157 299 20
22 52 22 60 0 6 -14 -7 -125 -34 -292 -5 -31 -4 -32 16 -22 19 10 22 9 31 -14
13 -34 13 -62 0 -70 -5 -3 -10 -10 -10 -15 0 -12 90 19 112 37 10 9 26 56 39
112 29 130 68 263 81 279 16 19 33 9 36 -21z m-600 -59 c19 -19 14 -48 -17
-114 -52 -110 -68 -92 -22 24 43 106 -39 32 -102 -93 -33 -67 -67 -171 -67
-207 l0 -30 41 34 c82 66 103 79 134 76 27 -3 30 -7 33 -40 3 -33 -3 -44 -45
-89 -98 -106 -189 -138 -232 -83 -77 98 66 446 211 517 40 20 50 21 66 5z
m1202 -100 c-10 -24 -21 -55 -25 -70 -7 -35 -25 -37 -25 -4 0 14 -10 32 -22
41 -13 10 -18 19 -12 21 9 4 80 41 101 53 2 0 -6 -18 -17 -41z m-1256 -154
c24 -9 19 -21 -9 -26 -28 -6 -27 -6 -19 16 7 18 7 18 28 10z"/>
<path d="M1464 2978 c-5 -7 -20 -104 -34 -215 l-26 -203 22 0 c36 0 52 10 73
43 45 74 70 337 35 371 -18 19 -60 21 -70 4z"/>
<path d="M1920 2237 c-47 -91 -82 -168 -78 -172 6 -6 118 51 118 60 0 2 11 56
25 121 14 65 25 126 23 137 -2 11 -38 -49 -88 -146z"/>
<path d="M4033 3210 c-25 -10 -30 -34 -11 -46 7 -4 8 -3 4 4 -12 19 4 35 20
21 12 -10 13 -9 8 5 -7 19 7 21 25 4 10 -11 11 -10 6 5 -8 19 -19 20 -52 7z"/>
<path d="M4073 3090 c-7 -25 -20 -26 -26 -2 -4 13 -5 11 -6 -5 -1 -17 5 -23
19 -23 13 0 20 7 20 20 0 25 17 26 23 3 4 -14 5 -12 6 5 1 28 -29 30 -36 2z"/>
<path d="M4058 2983 c12 -2 30 -2 40 0 9 3 -1 5 -23 4 -22 0 -30 -2 -17 -4z"/>
<path d="M4025 2890 c-7 -22 11 -53 26 -44 5 3 9 13 9 22 0 14 -2 15 -10 2
-11 -18 -25 -7 -17 15 7 17 42 21 52 5 3 -5 1 -19 -5 -30 -6 -11 -8 -20 -6
-20 3 0 10 9 16 21 9 15 8 24 -1 35 -18 21 -57 18 -64 -6z"/>
<path d="M4000 2780 l25 -20 -35 0 -35 -1 30 -24 c16 -13 31 -22 34 -19 2 2
-4 11 -15 19 -18 13 -17 14 16 15 l35 1 -30 24 c-16 14 -34 25 -40 25 -5 0 1
-9 15 -20z"/>
<path d="M3899 2683 c-12 -16 -12 -17 2 -6 18 15 30 8 22 -13 -4 -10 0 -12 13
-7 14 5 16 3 10 -13 -5 -14 -4 -16 4 -8 9 9 8 18 -5 38 -20 31 -28 32 -46 9z"/>
<path d="M3836 2626 c6 -15 3 -17 -14 -12 -20 7 -21 6 -5 -24 9 -19 21 -30 31
-28 25 5 26 32 2 59 -15 18 -18 19 -14 5z m24 -41 c0 -8 -7 -15 -15 -15 -16 0
-20 12 -8 23 11 12 23 8 23 -8z"/>
<path d="M3605 2335 l-18 -45 -63 0 c-41 0 -64 -4 -64 -11 0 -6 16 -29 35 -50
19 -22 35 -45 35 -52 0 -6 -14 -41 -30 -75 -17 -35 -30 -68 -30 -73 0 -19 26
-8 75 31 58 46 65 47 91 19 29 -32 73 -61 83 -55 6 4 2 34 -10 73 -15 52 -16
69 -6 75 6 5 38 23 69 41 32 18 56 37 55 42 -2 6 -40 14 -84 19 l-80 8 -9 46
c-5 25 -14 47 -20 49 -7 2 -20 -16 -29 -42z m39 -87 c6 -4 25 -8 41 -8 l30 0
-33 -21 c-30 -19 -32 -24 -26 -58 l7 -36 -27 24 -26 24 -25 -23 c-32 -30 -41
-21 -20 20 16 31 16 33 -6 56 l-22 24 31 0 c22 0 35 7 44 23 12 21 12 21 16 2
2 -11 9 -23 16 -27z"/>
</g>
</svg>
